# xmcd
#
# Track frame offsets:
# 150
# 11446
# 23738
# 36389
# 49908
# 58559
# 72125
# 85224
# 97498
# 111814
# 121545
# 131995
#
# Disc length: 1900 seconds
#
#
# Revision: 0
# Processed by: cddbd v1.5.2PL0 Copyright (c) Steve Scherf et al.
# Submitted via: FreeRIP 2.951 
#
DISCID=a2076a0c
DTITLE=João Mineiro e Marciano - Esta Noite como Lembrança
DYEAR=1900
DGENRE=Country
TTITLE0=Canção do Nosso Adeus
TTITLE1=Casa de Festa
TTITLE2=Quando eu ia embora
TTITLE3=Você é mais forte que eu
TTITLE4=Sofredor Apaixonado
TTITLE5=Ultimo Café
TTITLE6=Esta noite como lembrança
TTITLE7=Filho Sertanejo
TTITLE8=A Bailarina
TTITLE9=A Mulher do Palhaço
TTITLE10=Filho Adotivo
TTITLE11=Mesa Reservada
EXTD=ID3G: 2
EXTT0=
EXTT1=
EXTT2=
EXTT3=
EXTT4=
EXTT5=
EXTT6=
EXTT7=
EXTT8=
EXTT9=
EXTT10=
EXTT11=
PLAYORDER=
